# Alias OBJ Model File
# Exported from SketchUp, (c) 2000-2012 Trimble Navigation Limited
# File units = millimeters

mtllib arena.mtl

g Mesh1 Model

usemtl FrontColor
v 2860.31 -30 -409.663
vt -112.611 16.1284
vn 0 -1 -0
v -139.691 -30 2590.34
vt 5.49965 -101.982
v -139.691 -30 -409.663
vt 5.49965 16.1284
f 1/1/1 2/2/1 3/3/1

v 2860.31 -30 2590.34
vt -112.611 -101.982
f 2/2/1 1/1/1 4/4/1

vt 16.1284 -1.1811
vn 1 0 -0
v 2860.31 80 2590.34
vt -101.982 3.14961
vt -101.982 -1.1811
f 1/5/2 5/6/2 4/7/2

v 2860.31 80 -409.663
vt 16.1284 3.14961
f 5/6/2 1/5/2 6/8/2

vt -112.611 -1.1811
vn 0 0 -1
v -139.691 80 -409.663
vt 5.49965 3.14961
vt -112.611 3.14961
f 1/9/3 7/10/3 6/11/3

vt 5.49965 -1.1811
f 7/10/3 1/9/3 3/12/3

vt 101.982 -1.1811
vn -1 0 -0
vt -16.1284 3.14961
vt -16.1284 -1.1811
f 2/13/4 7/14/4 3/15/4

v -139.691 80 2590.34
vt 101.982 3.14961
f 7/14/4 2/13/4 8/16/4

vt -5.49965 -1.1811
vn 0 0 1
vt 112.611 3.14961
vt -5.49965 3.14961
f 2/17/5 5/18/5 8/19/5

vt 112.611 -1.1811
f 5/18/5 2/17/5 4/20/5

v -109.691 80 2560.34
vt -4.31855 -100.801
vn 0 1 -0
vt -5.49965 -101.982
vt 112.611 -101.982
f 9/21/6 8/22/6 5/23/6

vt -5.49965 16.1284
f 8/22/6 9/21/6 7/24/6

v -109.691 80 -379.663
vt -4.31855 14.9473
f 7/24/6 9/21/6 10/25/6

vt -100.801 3.14961
vn 1 0 -1.53468e-17
v -109.691 0 -379.663
vt 14.9473 0
vt 14.9473 3.14961
f 9/26/7 11/27/7 10/28/7

v -109.691 0 2560.34
vt -100.801 0
f 11/27/7 9/26/7 12/29/7

vt 4.31855 3.14961
v 2830.31 0 2560.34
vt -111.429 0
vt 4.31855 0
f 9/30/3 13/31/3 12/32/3

v 2830.31 80 2560.34
vt -111.429 3.14961
f 13/31/3 9/30/3 14/33/3

vt 111.429 -100.801
f 9/21/6 5/23/6 14/34/6

v 2830.31 80 -379.663
vt 111.429 14.9473
f 14/34/6 5/23/6 15/35/6

vt 112.611 16.1284
f 6/36/6 15/35/6 5/23/6

f 6/36/6 10/25/6 15/35/6

f 10/25/6 6/36/6 7/24/6

vt -4.31855 0
vt 111.429 3.14961
vt -4.31855 3.14961
f 11/37/5 15/38/5 10/39/5

v 2830.31 0 -379.663
vt 111.429 0
f 15/38/5 11/37/5 16/40/5

f 12/21/6 16/35/6 11/25/6

f 16/35/6 12/21/6 13/34/6

vt 100.801 0
vt -14.9473 3.14961
vt -14.9473 0
f 13/41/4 15/42/4 16/43/4

vt 100.801 3.14961
f 15/42/4 13/41/4 14/44/4

g Mesh2 Model

l 1 4

l 3 1

l 2 3

l 4 2

l 5 4

l 6 5

l 6 1

l 7 6

l 7 3

l 8 7

l 8 2

l 5 8

g Mesh3 Model

l 16 13

l 11 16

l 12 11

l 13 12

l 13 14

l 15 14

l 10 15

l 9 10

l 14 9

l 12 9

l 11 10

l 16 15

