# Alias OBJ Model File
# Exported from SketchUp, (c) 2000-2012 Trimble Navigation Limited
# File units = millimeters

mtllib Top.mtl

g Mesh1 Model

usemtl FrontColor
v 1.41144e-15 8.01381e-18 -0.5
vt -5.55683e-17 0.019685
vn 0 -1 -0
v 0 0 -45
vt 0 1.77165
v 2 6.79123e-18 -45
vt -0.0787402 1.77165
v 2 -1.36173e-16 -3.5
vt -0.0787402 0.137795
v 161 -1.42964e-16 -3.5
vt -6.33858 0.137795
v 161 0 -49
vt -6.33858 1.92913
v 163 0 -49
vt -6.41732 1.92913
v 163 8.01381e-18 -0.5
vt -6.41732 0.019685
f 1/1/1 2/2/1 3/3/1 4/4/1 5/5/1 6/6/1 7/7/1 8/8/1 

v 6.47318e-16 19 -0.5
vt -0.019685 0.748031
vn -1 3.97014e-17 -2.41023e-18
v 2.27277e-15 19 -45
vt -1.77165 0.748031
vt -1.77165 -1.69528e-34
vt -0.019685 3.15504e-19
f 9/9/2 10/10/2 2/11/2 1/12/2 

v 1.40998e-15 19 -69
vt -2.71654 0.641432
vn -0.857493 0.514496 1.53458e-17
v 18.6 50 -69
vt -2.71654 2.06473
v 18.6 50 -45
vt -1.77165 2.06473
vt -1.77165 0.641432
vt -0.019685 0.641432
v 19.5 51.5 -0.5
vt -0.019685 2.1336
v 19.5 51.5 -113.5
vt -4.4685 2.1336
v 1.36509e-15 19 -113.5
vt -4.4685 0.641432
f 11/13/3 12/14/3 13/15/3 10/16/3 9/17/3 14/18/3 15/19/3 16/20/3 

v 1.40998e-15 0 -69
vt 5.55112e-17 0
vn 0 0 1
v 2 -2.69235e-18 -69
vt 0.0787402 -1.05998e-19
v 2 18.5845 -69
vt 0.0787402 0.731674
v 24.5 18.5845 -69
vt 0.964567 0.731674
v 24.5 50 -69
vt 0.964567 1.9685
v 19.5 50 -69
vt 0.767717 1.9685
vt 0.732283 1.9685
vt 5.55112e-17 0.748031
f 17/21/4 18/22/4 19/23/4 20/24/4 21/25/4 22/26/4 12/27/4 11/28/4 

v 161 -1.2454e-16 -110.5
vt -6.33858 4.35039
v 2 -1.27233e-16 -110.5
vt -0.0787402 4.35039
vt -0.0787402 2.71654
vt -5.55112e-17 2.71654
v 1.36509e-15 -1.71728e-16 -113.5
vt -5.37438e-17 4.4685
v 163 -1.71728e-16 -113.5
vt -6.41732 4.4685
v 163 0 -65
vt -6.41732 2.55906
v 161 0 -65
vt -6.33858 2.55906
f 23/29/1 24/30/1 18/31/1 17/32/1 25/33/1 26/34/1 27/35/1 28/36/1 

vt 0.0787402 -2.75909e-16
vn -1.3643e-16 -6.22702e-17 1
vt 6.33858 -2.75803e-16
v 161 19 -110.5
vt 6.33858 0.748031
v 161.5 19 -110.5
vt 6.35827 0.748031
v 161.428 20.5 -110.5
vt 6.35545 0.807087
v 161.345 22.2443 -110.5
vt 6.35216 0.875758
v 161.092 24 -110.5
vt 6.34219 0.944882
v 160.881 25.459 -110.5
vt 6.33391 1.00232
v 160.113 28.6148 -110.5
vt 6.30367 1.12657
v 159.048 31.683 -110.5
vt 6.26172 1.24736
v 157.695 34.6357 -110.5
vt 6.20845 1.36361
v 156.066 37.4459 -110.5
vt 6.14433 1.47425
v 154.177 40.088 -110.5
vt 6.06996 1.57827
v 152.045 42.5379 -110.5
vt 5.98601 1.67472
v 149.688 44.7734 -110.5
vt 5.89324 1.76273
v 147.13 46.774 -110.5
vt 5.79251 1.84149
v 144.392 48.5215 -110.5
vt 5.68472 1.91029
v 141.5 50 -110.5
vt 5.57087 1.9685
v 20.3493 50 -110.5
vt 0.801153 1.9685
v 1.5 18.5845 -110.5
vt 0.0590551 0.731674
v 2 18.5845 -110.5
f 24/37/5 23/38/5 29/39/5 30/40/5 31/41/5 32/42/5 33/43/5 34/44/5 35/45/5 36/46/5 37/47/5 38/48/5 39/49/5 40/50/5 41/51/5 42/52/5 43/53/5 44/54/5 45/55/5 46/56/5 47/23/5 

vt -2.55906 0
vn -1 0 -0
v 161 19 -65
vt -2.55906 0.748031
vt -4.35039 0.748031
vt -4.35039 -4.90316e-18
f 28/57/6 48/58/6 29/59/6 23/60/6 

vt 6.41732 1.53883e-15
vn -2.19365e-14 6.01328e-16 1
v 163 20.5 -65
vt 6.41732 0.807087
v 162.845 23.7443 -65
vt 6.41122 0.934813
v 162.808 24 -65
vt 6.40977 0.944882
v 161.092 24 -65
v 161.345 22.2443 -65
v 161.5 19 -65
vt 6.33858 1.53883e-15
f 27/61/7 49/62/7 50/63/7 51/64/7 52/43/7 53/42/7 54/40/7 48/39/7 28/65/7 

vt 4.4685 -6.76094e-18
vn 1 0 -0
v 163 20.5 -113.5
vt 4.4685 0.807087
vt 2.55906 0.807087
vt 2.55906 0
f 26/66/8 55/67/8 49/68/8 27/69/8 

v 162.381 26.959 -113.5
vt -6.39297 1.06138
vn 8.97798e-17 3.43456e-16 -1
v 162.808 24 -113.5
vt -6.40977 0.944882
v 162.845 23.7443 -113.5
vt -6.41122 0.934813
vt -6.41732 0.807087
vt -6.41732 -1.54149e-15
vt 3.47437e-16 -1.54149e-15
vt 3.47437e-16 0.748031
vt -0.767717 2.02756
v 143 51.5 -113.5
vt -5.62992 2.02756
v 145.892 50.0215 -113.5
vt -5.74378 1.96935
v 148.63 48.274 -113.5
vt -5.85156 1.90055
v 151.188 46.2734 -113.5
vt -5.9523 1.82179
v 153.545 44.0379 -113.5
vt -6.04506 1.73378
v 155.677 41.588 -113.5
vt -6.12902 1.63732
v 157.566 38.9459 -113.5
vt -6.20339 1.5333
v 159.195 36.1357 -113.5
vt -6.26751 1.42266
v 160.548 33.183 -113.5
vt -6.32078 1.30642
v 161.613 30.1148 -113.5
vt -6.36273 1.18562
f 56/70/9 57/71/9 58/72/9 55/73/9 26/74/9 25/75/9 16/76/9 15/77/9 59/78/9 60/79/9 61/80/9 62/81/9 63/82/9 64/83/9 65/84/9 66/85/9 67/86/9 68/87/9 

vt 4.4685 0.0100238
vn 0.995444 0.0953493 -1.6034e-16
vt 4.4685 0.0201965
vn 0.989758 0.142752 -1.2609e-16
vt 4.4685 0.137896
vn 0.981817 0.18983 -8.16129e-17
v 162.381 26.959 -0.5
vt 0.019685 0.137896
v 162.845 23.7443 -0.5
vt 0.019685 0.0100238
vn 0.995444 0.0953493 -6.31171e-17
v 162.845 23.7443 -49
vt 1.92913 0.0100238
v 162.808 24 -49
vt 1.92913 0.0201965
vt 2.55906 0.0201965
vt 2.55906 0.0100238
f 58/88/10 57/89/11 56/90/12 69/91/12 70/92/13 71/93/13 72/94/11 51/95/11 50/96/10 

v 161.613 30.1148 -0.5
vt 0.019685 -0.352628
vn 0.959244 0.28258 -3.75757e-17
vt 0.019685 -0.480501
vt 4.4685 -0.480501
vt 4.4685 -0.352628
f 73/97/14 69/98/12 56/99/12 68/100/14 

vt 6.41732 -1.15556e-33
vn -2.9047e-18 -1.60276e-17 1
v 163 20.5 -0.5
vt 6.39297 1.06138
vt 6.36273 1.18562
v 160.548 33.183 -0.5
vt 6.32078 1.30642
v 159.195 36.1357 -0.5
vt 6.26751 1.42266
v 157.566 38.9459 -0.5
vt 6.20339 1.5333
v 155.677 41.588 -0.5
vt 6.12902 1.63732
v 153.545 44.0379 -0.5
vt 6.04506 1.73378
v 151.188 46.2734 -0.5
vt 5.9523 1.82179
v 148.63 48.274 -0.5
vt 5.85156 1.90055
v 145.892 50.0215 -0.5
vt 5.74378 1.96935
v 143 51.5 -0.5
vt 5.62992 2.02756
vt 0.767717 2.02756
vt 2.54278e-17 0.748031
vt 5.55112e-17 -8.66668e-34
f 8/101/15 74/62/15 70/63/15 69/102/15 73/103/15 75/104/15 76/105/15 77/106/15 78/107/15 79/108/15 80/109/15 81/110/15 82/111/15 83/112/15 14/113/15 9/114/15 1/115/15 

vt 1.92913 0
v 163 20.5 -49
vt 1.92913 0.807087
vt 0.019685 0.807087
vt 0.019685 3.15504e-19
f 7/116/8 84/117/8 74/118/8 8/119/8 

v 161.5 19 -49
vt -6.35827 0.748031
vn 5.267e-15 -6.2699e-16 -1
v 161.428 20.5 -49
vt -6.35545 0.807087
vt -6.41732 1.20955e-15
vt -6.33858 1.20955e-15
v 161 19 -49
vt -6.33858 0.748031
f 85/120/16 86/121/16 84/73/16 7/122/16 6/123/16 87/124/16 

v 161.345 22.2443 -3.5
vt -0.137795 0.571577
vn -0.995444 -0.0953493 3.12891e-17
v 161.345 22.2443 -49
vt -1.92913 0.571577
vt -1.92913 0.502827
vn -0.99886 -0.047729 -2.88495e-18
vt -1.92913 0.443705
v 161.5 19 -3.5
vt -0.137795 0.443705
f 88/125/17 89/126/17 86/127/18 85/128/18 90/129/18 

vt -2.55906 -0.0399963
vn -0.989758 -0.142752 6.53918e-17
vt -2.55906 0.0298426
v 161.092 24 -49
vt -1.92913 0.0298426
vt -1.92913 -0.0399963
vt -0.137795 -0.0399963
v 160.881 25.459 -3.5
vt -0.137795 0.0878762
vn -0.981817 -0.18983 -5.61429e-17
vt -4.35039 0.0878762
vt -4.35039 0.0298426
vt -4.35039 -0.0399963
f 53/130/19 52/131/19 91/132/19 89/133/17 88/134/17 92/135/20 34/136/20 33/137/19 32/138/19 

vt -6.40977 1.92913
vn -8.21504e-16 -1 -8.8124e-17
vt -6.34219 1.92913
vt -6.34219 2.55906
vt -6.40977 2.55906
f 72/139/21 91/140/21 52/141/21 51/142/21 

vn -4.60177e-16 1.20731e-15 -1
vt -6.35216 0.875758
vt -6.34219 0.944882
f 71/72/22 84/73/22 86/121/22 89/143/22 91/144/22 72/71/22 

vt 0.019685 0.627747
vt 0.019685 0.499874
vn 0.99886 0.047729 -0
vt 1.92913 0.499874
vt 1.92913 0.627747
f 70/145/13 74/146/23 84/147/23 71/148/13 

vt -6.33858 4.22138e-18
vn -5.24973e-17 -7.14821e-17 -1
vt -0.0787402 4.48876e-18
v 2 18.5845 -3.5
vt -0.0787402 0.731674
v 1.5 18.5845 -3.5
vt -0.0590551 0.731674
v 20.3493 50 -3.5
vt -0.801153 1.9685
v 141.5 50 -3.5
vt -5.57087 1.9685
v 144.392 48.5215 -3.5
vt -5.68472 1.91029
v 147.13 46.774 -3.5
vt -5.79251 1.84149
v 149.688 44.7734 -3.5
vt -5.89324 1.76273
v 152.045 42.5379 -3.5
vt -5.98601 1.67472
v 154.177 40.088 -3.5
vt -6.06996 1.57827
v 156.066 37.4459 -3.5
vt -6.14433 1.47425
v 157.695 34.6357 -3.5
vt -6.20845 1.36361
v 159.048 31.683 -3.5
vt -6.26172 1.24736
v 160.113 28.6148 -3.5
vt -6.30367 1.12657
vt -6.33391 1.00232
v 161 19 -3.5
f 5/149/24 4/150/24 93/151/24 94/152/24 95/153/24 96/154/24 97/155/24 98/156/24 99/157/24 100/158/24 101/159/24 102/160/24 103/161/24 104/162/24 105/163/24 92/164/24 88/143/24 90/120/24 106/124/24 

v 2 18.5845 -45
vt 1.77165 0.731674
vn 1 1.35825e-17 -1.77011e-18
v 2 18.5845 -43.5
vt 1.7126 0.731674
vt 0.137795 0.731674
vt 0.137795 -6.43063e-18
vt 1.77165 -8.02114e-19
f 107/165/25 108/166/25 93/167/25 4/168/25 3/169/25 

v 24.5 18.5845 -45
vt -0.964567 1.77165
v 24.5 18.5845 -43.5
vt -0.964567 1.7126
vt -0.0787402 1.7126
f 107/3/1 109/170/1 110/171/1 108/172/1 

vt -8.94791e-17 0.748031
vn 0 0 -1
vt -0.732283 1.9685
v 19.5 50 -45
vt -0.767717 1.9685
v 24.5 50 -45
vt -0.964567 1.9685
vt -0.964567 0.731674
vt -0.0787402 2.67371e-19
vt 0 0
f 10/173/26 13/174/26 111/175/26 112/176/26 109/177/26 107/151/26 3/178/26 2/179/26 

vt -0.767717 1.77165
vt -0.732283 1.77165
vt -0.732283 2.71654
vt -0.767717 2.71654
f 111/180/1 13/181/1 12/182/1 22/183/1 

vt -0.964567 2.71654
vn 4.41127e-17 -1 1.989e-17
f 21/184/27 111/180/27 22/183/27

f 111/180/27 21/184/27 112/170/27

v 51 50 -94.5
vt -2.00787 3.72047
f 21/184/27 113/185/27 112/170/27

v 24.5 50 -70.5
vt -0.964567 2.77559
f 114/186/27 113/185/27 21/184/27

v 20.3493 50 -70.5
vt -0.801153 2.77559
f 115/187/27 113/185/27 114/186/27

vt -0.801153 4.35039
f 45/188/27 113/185/27 115/187/27

vt -5.57087 4.35039
f 113/185/27 45/188/27 44/189/27

v 81.5 50 -94.5
vt -3.20866 3.72047
f 113/185/27 44/189/27 116/190/27

v 81.5 50 -92
vt -3.20866 3.62205
f 116/190/27 44/189/27 117/191/27

v 81.5 50 -89.5
vt -3.20866 3.52362
f 117/191/27 44/189/27 118/192/27

v 81.5 50 -87
vt -3.20866 3.4252
f 118/192/27 44/189/27 119/193/27

v 81.5 50 -84.5
vt -3.20866 3.32677
f 119/193/27 44/189/27 120/194/27

v 81.5 50 -82
vt -3.20866 3.22835
f 120/194/27 44/189/27 121/195/27

v 81.5 50 -79.5
vt -3.20866 3.12992
f 121/195/27 44/189/27 122/196/27

v 81.5 50 -77
vt -3.20866 3.0315
f 122/196/27 44/189/27 123/197/27

v 81.5 50 -74.5
vt -3.20866 2.93307
f 123/197/27 44/189/27 124/198/27

v 81.5 50 -72
vt -3.20866 2.83465
f 124/198/27 44/189/27 125/199/27

v 141.5 50 -45
vt -5.57087 1.77165
f 126/200/27 125/199/27 44/189/27

v 51 50 -72
vt -2.00787 2.83465
f 126/200/27 127/201/27 125/199/27

v 49.5 50 -45
vt -1.94882 1.77165
f 128/202/27 127/201/27 126/200/27

f 127/201/27 128/202/27 113/185/27

v 24.5 50 -43.5
f 129/171/27 113/185/27 128/202/27

f 112/170/27 113/185/27 129/171/27

vt 1.77165 1.9685
vt 1.7126 1.9685
f 109/165/8 112/203/8 129/204/8 110/166/8 

v 20.3493 50 -43.5
v 1.5 18.5845 -43.5
f 108/23/4 110/24/4 129/25/4 130/55/4 131/56/4 

vt -0.801153 0.137795
vt -0.801153 1.7126
f 129/171/27 95/205/27 130/206/27

v 49.5 50 -24
vt -1.94882 0.944882
f 95/205/27 129/171/27 132/207/27

f 132/207/27 129/171/27 128/202/27

vt -0.944882 1.9685
vn -1 -6.13036e-17 -3.29284e-32
vt -1.77165 1.9685
v 49.5 48 -45
vt -1.77165 1.88976
v 49.5 48 -24
vt -0.944882 1.88976
f 132/208/28 128/209/28 133/210/28 134/211/28 

vt -1.94882 1.9685
vn 0 2.68568e-16 -1
v 141.5 48 -45
vt -5.57087 1.88976
vt -1.94882 1.88976
f 128/212/29 126/154/29 135/213/29 133/214/29 

vn 1 6.13036e-17 -0
v 141.5 50 -24
vt 0.944882 1.9685
v 141.5 48 -24
vt 0.944882 1.88976
vt 1.77165 1.88976
f 126/203/30 136/215/30 137/216/30 135/217/30 

vt -4.35039 -4.06411
vn -0.455213 -0.890383 1.657e-17
vt -4.35039 -4.19199
vn -0.497191 -0.867641 -5.20699e-17
vt -0.137795 -4.19199
vt -0.137795 -4.06411
vt -0.944882 -4.06411
vt -1.77165 -4.06411
f 44/218/31 43/219/32 97/220/32 96/221/31 136/222/31 126/223/31 

vt -4.35039 -3.76397
vt -4.35039 -3.89184
vn -0.577655 -0.816281 -1.26696e-16
vt -0.137795 -3.89184
vt -0.137795 -3.76397
f 43/224/32 42/225/33 98/226/33 97/227/32 

vt -4.35039 -3.42894
vt -4.35039 -3.55681
vn -0.652855 -0.757483 -1.38025e-16
vt -0.137795 -3.55681
vt -0.137795 -3.42894
f 42/228/33 41/229/34 99/230/34 98/231/33 

vt -4.35039 -3.06209
vt -4.35039 -3.18996
vn -0.722106 -0.691783 -1.48097e-16
vt -0.137795 -3.18996
vt -0.137795 -3.06209
f 41/232/34 40/233/35 100/234/35 99/235/34 

vt -4.35039 -2.66674
vt -4.35039 -2.79462
vn -0.784777 -0.619779 -1.56819e-16
vt -0.137795 -2.79462
vt -0.137795 -2.66674
f 40/236/35 39/237/36 101/238/36 100/239/35 

vt -4.35039 -2.24652
vt -4.35039 -2.37439
vn -0.840297 -0.542127 -1.64112e-16
vt -0.137795 -2.37439
vt -0.137795 -2.24652
f 39/240/36 38/241/37 102/242/37 101/243/36 

vt -4.35039 -1.80525
vt -4.35039 -1.93312
vn -0.88816 -0.459535 -1.6991e-16
vt -0.137795 -1.93312
vt -0.137795 -1.80525
f 38/244/37 37/245/38 103/246/38 102/247/37 

vt -4.35039 -1.34694
vt -4.35039 -1.47481
vn -0.927929 -0.372756 -1.74159e-16
vt -0.137795 -1.47481
vt -0.137795 -1.34694
f 37/248/38 36/249/39 104/250/39 103/251/38 

vt -4.35039 -0.875771
vt -4.35039 -1.00364
vn -0.959244 -0.28258 -1.76822e-16
vt -0.137795 -1.00364
vt -0.137795 -0.875771
f 36/252/39 35/253/40 105/254/40 104/255/39 

vt -4.35039 -0.396043
vt -4.35039 -0.523916
vt -0.137795 -0.523916
vt -0.137795 -0.396043
f 35/256/40 34/257/20 92/258/20 105/259/40 

vt -5.57087 0.137795
vt -5.57087 0.944882
f 96/260/27 132/207/27 136/261/27

f 95/205/27 132/207/27 96/260/27

vn 6.13036e-17 -2.68568e-16 1
vt 1.94882 1.9685
vt 1.94882 1.88976
vt 5.57087 1.88976
f 136/54/41 132/262/41 134/263/41 137/264/41 

vn 6.13036e-17 -1 -2.68568e-16
v 51 48 -25.5
vt -2.00787 1.00394
f 134/207/42 138/265/42 137/261/42

v 51 48 -43.5
vt -2.00787 1.7126
f 138/265/42 134/207/42 139/266/42

f 133/202/42 139/266/42 134/207/42

f 139/266/42 133/202/42 135/200/42

v 140 48 -43.5
vt -5.51181 1.7126
f 139/266/42 135/200/42 140/267/42

v 140 48 -25.5
vt -5.51181 1.00394
f 140/267/42 135/200/42 141/268/42

f 137/261/42 141/268/42 135/200/42

f 137/261/42 138/265/42 141/268/42

v 51 51.5 -25.5
vt -2.00787 2.02756
vn 0 6.26659e-16 -1
v 140 51.5 -25.5
vt -5.51181 2.02756
vt -5.51181 1.88976
vt -2.00787 1.88976
f 142/269/43 143/270/43 141/271/43 138/272/43 

vt 2.00787 1.00394
vn 0 1 -0
vt 5.62992 0.019685
vt 5.51181 1.00394
f 142/273/44 83/274/44 143/275/44

vt 0.767717 0.019685
f 83/274/44 142/273/44 14/276/44

v 51 51.5 -94.5
vt 2.00787 3.72047
f 144/277/44 14/276/44 142/273/44

vt 0.767717 4.4685
f 144/277/44 15/278/44 14/276/44

vt 5.62992 4.4685
f 15/278/44 144/277/44 59/279/44

v 81.5 51.5 -94.5
vt 3.20866 3.72047
f 59/279/44 144/277/44 145/280/44

vt 3.20866 2.02756
vn 3.33732e-30 -4.51195e-15 1
vt 2.00787 2.02756
vt 2.00787 1.9685
vt 3.20866 1.9685
f 145/281/45 144/282/45 113/283/45 116/284/45 

vt 3.72047 2.02756
vn 1 3.69832e-16 -0
v 51 51.5 -92
vt 3.62205 2.02756
v 51 50 -92
vt 3.62205 1.9685
vt 3.72047 1.9685
f 144/285/46 146/286/46 147/287/46 113/288/46 

v 51 51.5 -89.5
vt 2.00787 3.52362
vt 2.00787 3.62205
f 144/277/44 148/289/44 146/290/44

v 51 51.5 -87
vt 2.00787 3.4252
f 144/277/44 149/291/44 148/289/44

v 51 51.5 -84.5
vt 2.00787 3.32677
f 144/277/44 150/292/44 149/291/44

v 51 51.5 -82
vt 2.00787 3.22835
f 144/277/44 151/293/44 150/292/44

v 51 51.5 -79.5
vt 2.00787 3.12992
f 144/277/44 152/294/44 151/293/44

v 51 51.5 -77
vt 2.00787 3.0315
f 144/277/44 153/295/44 152/294/44

v 51 51.5 -74.5
vt 2.00787 2.93307
f 144/277/44 154/296/44 153/295/44

v 51 51.5 -72
vt 2.00787 2.83465
f 144/277/44 155/297/44 154/296/44

v 51 51.5 -43.5
vt 2.00787 1.7126
f 144/277/44 156/298/44 155/297/44

f 144/277/44 142/273/44 156/298/44

vt 1.7126 2.02756
vn 1 1.2674e-16 -0
vt 1.00394 2.02756
vt 1.00394 1.88976
vt 1.7126 1.88976
f 156/299/47 142/300/47 138/301/47 139/302/47 

v 140 51.5 -43.5
vt 5.51181 2.02756
vn 1.58846e-31 -6.26659e-16 1
vt 2.00787 1.88976
vt 5.51181 1.88976
f 157/303/48 156/282/48 139/304/48 140/305/48 

vt 5.51181 1.7126
f 157/306/44 155/297/44 156/298/44

v 81.5 51.5 -72
vt 3.20866 2.83465
f 155/297/44 157/306/44 158/307/44

v 81.5 51.5 -74.5
vt 3.20866 2.93307
f 158/307/44 157/306/44 159/308/44

v 81.5 51.5 -77
vt 3.20866 3.0315
f 159/308/44 157/306/44 160/309/44

v 81.5 51.5 -79.5
vt 3.20866 3.12992
f 160/309/44 157/306/44 161/310/44

v 81.5 51.5 -82
vt 3.20866 3.22835
f 161/310/44 157/306/44 162/311/44

v 81.5 51.5 -84.5
vt 3.20866 3.32677
f 162/311/44 157/306/44 163/312/44

v 81.5 51.5 -87
vt 3.20866 3.4252
f 163/312/44 157/306/44 164/313/44

v 81.5 51.5 -89.5
vt 3.20866 3.52362
f 164/313/44 157/306/44 165/314/44

v 81.5 51.5 -92
vt 3.20866 3.62205
f 165/314/44 157/306/44 166/315/44

f 166/315/44 157/306/44 145/280/44

f 59/279/44 145/280/44 157/306/44

f 59/279/44 157/306/44 83/274/44

f 143/275/44 83/274/44 157/306/44

vt -1.00394 2.02756
vn -1 -1.2674e-16 -1.58846e-31
vt -1.7126 2.02756
vt -1.7126 1.88976
vt -1.00394 1.88976
f 143/316/49 157/317/49 140/318/49 141/319/49 

vt 0.019685 -4.08981
vn 0.455213 0.890383 -0
vt 0.019685 -4.21769
vn 0.497191 0.867641 -1.82057e-17
vt 4.4685 -4.21769
vt 4.4685 -4.08981
f 83/320/50 82/321/51 60/322/51 59/323/50 

vt 0.019685 -3.78197
vt 0.019685 -3.90985
vn 0.577655 0.816281 -3.70657e-17
vt 4.4685 -3.90985
vt 4.4685 -3.78197
f 82/324/51 81/325/52 61/326/52 60/327/51 

vt 0.019685 -3.43909
vt 0.019685 -3.56696
vn 0.652855 0.757483 -3.82026e-17
vt 4.4685 -3.56696
vt 4.4685 -3.43909
f 81/328/52 80/329/53 62/330/53 61/331/52 

vt 0.019685 -3.06428
vt 0.019685 -3.19215
vn 0.722106 0.691783 -3.89913e-17
vt 4.4685 -3.19215
vt 4.4685 -3.06428
f 80/332/53 79/333/54 63/334/54 62/335/53 

vt 0.019685 -2.66097
vt 0.019685 -2.78884
vn 0.784777 0.619779 -3.94248e-17
vt 4.4685 -2.78884
vt 4.4685 -2.66097
f 79/336/54 78/337/55 64/338/55 63/339/54 

vt 0.019685 -2.23283
vt 0.019685 -2.3607
vn 0.840297 0.542127 -3.9499e-17
vt 4.4685 -2.3607
vt 4.4685 -2.23283
f 78/340/55 77/341/56 65/342/56 64/343/55 

vt 0.019685 -1.78376
vt 0.019685 -1.91163
vn 0.88816 0.459535 -3.92133e-17
vt 4.4685 -1.91163
vt 4.4685 -1.78376
f 77/344/56 76/345/57 66/346/57 65/347/56 

vt 0.019685 -1.31785
vt 0.019685 -1.44573
vn 0.927929 0.372756 -3.85702e-17
vt 4.4685 -1.44573
vt 4.4685 -1.31785
f 76/348/57 75/349/58 67/350/58 66/351/57 

vt 0.019685 -0.839357
vt 0.019685 -0.967229
vt 4.4685 -0.967229
vt 4.4685 -0.839357
f 75/352/58 73/353/14 68/354/14 67/355/58 

vt -3.62205 2.02756
vn -1 -3.69832e-16 -3.33732e-30
vt -3.72047 2.02756
vt -3.72047 1.9685
vt -3.62205 1.9685
f 166/356/59 145/357/59 116/358/59 117/359/59 

vn 0 4.51195e-15 -1
vt -3.20866 2.02756
vt -3.20866 1.9685
vt -2.00787 1.9685
f 146/269/60 166/360/60 117/361/60 147/362/60 

f 146/290/44 165/314/44 166/315/44

f 165/314/44 146/290/44 148/289/44

v 51 50 -89.5
f 165/281/45 148/282/45 167/283/45 118/284/45 

vt 3.52362 2.02756
vt 3.4252 2.02756
v 51 50 -87
vt 3.4252 1.9685
vt 3.52362 1.9685
f 148/363/46 149/364/46 168/365/46 167/366/46 

f 149/269/60 164/360/60 119/361/60 168/362/60 

f 149/291/44 163/312/44 164/313/44

f 163/312/44 149/291/44 150/292/44

v 51 50 -84.5
f 163/281/45 150/282/45 169/283/45 120/284/45 

vt 3.32677 2.02756
vt 3.22835 2.02756
v 51 50 -82
vt 3.22835 1.9685
vt 3.32677 1.9685
f 150/367/46 151/368/46 170/369/46 169/370/46 

f 151/269/60 162/360/60 121/361/60 170/362/60 

f 151/293/44 161/310/44 162/311/44

f 161/310/44 151/293/44 152/294/44

vn 1.66866e-30 -2.25597e-15 1
v 51 50 -79.5
f 161/281/61 152/282/61 171/283/61 122/284/61 

vt 3.12992 2.02756
vt 3.0315 2.02756
v 51 50 -77
vt 3.0315 1.9685
vt 3.12992 1.9685
f 152/371/46 153/372/46 172/373/46 171/374/46 

vn 0 2.25597e-15 -1
f 153/269/62 160/360/62 123/361/62 172/362/62 

f 153/295/44 159/308/44 160/309/44

f 159/308/44 153/295/44 154/296/44

v 51 50 -74.5
f 159/281/61 154/282/61 173/283/61 124/284/61 

vt 2.93307 2.02756
vt 2.83465 2.02756
vt 2.83465 1.9685
vt 2.93307 1.9685
f 154/375/46 155/376/46 127/377/46 173/378/46 

f 155/269/62 158/360/62 125/361/62 127/362/62 

vt -2.83465 2.02756
vn -1 -3.69832e-16 -1.66866e-30
vt -2.93307 2.02756
vt -2.93307 1.9685
vt -2.83465 1.9685
f 158/379/63 159/380/63 124/381/63 125/382/63 

vt -2.00787 3.0315
vt -2.00787 2.93307
f 127/201/27 172/383/27 173/384/27

vt -2.00787 3.12992
f 127/201/27 171/385/27 172/383/27

vt -2.00787 3.22835
f 127/201/27 170/386/27 171/385/27

vt -2.00787 3.32677
f 127/201/27 169/387/27 170/386/27

vt -2.00787 3.4252
f 127/201/27 168/388/27 169/387/27

vt -2.00787 3.52362
f 127/201/27 167/389/27 168/388/27

vt -2.00787 3.62205
f 127/201/27 147/390/27 167/389/27

f 127/201/27 113/185/27 147/390/27

f 117/191/27 167/389/27 147/390/27

f 167/389/27 117/191/27 118/192/27

f 119/193/27 169/387/27 168/388/27

f 169/387/27 119/193/27 120/194/27

f 121/195/27 171/385/27 170/386/27

f 171/385/27 121/195/27 122/196/27

f 123/197/27 173/384/27 172/383/27

f 173/384/27 123/197/27 124/198/27

vt -3.0315 2.02756
vt -3.12992 2.02756
vt -3.12992 1.9685
vt -3.0315 1.9685
f 160/391/63 161/392/63 122/393/63 123/394/63 

vt -3.22835 2.02756
vt -3.32677 2.02756
vt -3.32677 1.9685
vt -3.22835 1.9685
f 162/395/59 163/396/59 120/397/59 121/398/59 

vt -3.4252 2.02756
vt -3.52362 2.02756
vt -3.52362 1.9685
vt -3.4252 1.9685
f 164/399/59 165/400/59 118/401/59 119/402/59 

vt 0.137795 0.657789
vn 0.857493 -0.514496 7.97282e-18
vt 1.7126 0.657789
vt 1.7126 2.10017
vt 0.137795 2.10017
f 94/403/64 131/404/64 130/405/64 95/406/64 

vt 0.0590551 1.7126
vn -1.35825e-17 1 -0
vt 0.0590551 0.137795
vt 0.0787402 0.137795
vt 0.0787402 1.7126
f 131/407/65 94/408/65 93/409/65 108/410/65 

vt 4.35039 0.657789
vn 0.857493 -0.514496 2.10192e-17
vt 4.35039 2.10017
vt 2.77559 2.10017
v 1.5 18.5845 -70.5
vt 2.77559 0.657789
f 46/411/66 45/412/66 115/413/66 174/414/66 

v 2 18.5845 -70.5
v 24.5 18.5845 -70.5
f 175/151/26 174/152/26 115/153/26 114/176/26 176/177/26 

vt 0.0590551 4.35039
vn 5.38471e-18 1 -0
vt 0.0590551 2.77559
vt 0.0787402 2.77559
vt 0.0787402 4.35039
f 46/415/67 174/416/67 175/417/67 47/418/67 

vt 2.77559 0.731674
vn 1 -5.38471e-18 1.77011e-18
vt 2.71654 0.731674
vt 2.71654 3.17994e-19
vt 4.35039 -4.58517e-18
vt 4.35039 0.731674
f 175/419/68 19/420/68 18/421/68 24/422/68 47/423/68 

vt -0.0787402 2.77559
f 20/184/1 19/31/1 175/424/1 176/186/1 

vt 2.71654 1.9685
vt 2.77559 1.9685
f 21/425/8 20/420/8 176/419/8 114/426/8 

vt 6.35827 0.137795
vt 6.35827 1.92913
vt 6.33858 1.92913
vt 6.33858 0.137795
f 90/427/44 85/428/44 87/429/44 106/430/44 

vt -0.137795 -5.62851e-18
vt -0.137795 0.748031
vt -1.92913 0.748031
vt -1.92913 0
f 5/431/6 106/432/6 87/433/6 6/434/6 

vt -2.55906 0.443705
vn -0.99886 -0.047729 1.47792e-16
vt -2.55906 0.571577
vt -4.35039 0.571577
vt -4.35039 0.502827
vt -4.35039 0.443705
f 54/435/69 53/436/69 32/437/69 31/438/69 30/439/69 

vt 6.35827 2.55906
vt 6.35827 4.35039
vt 6.33858 4.35039
vt 6.33858 2.55906
f 54/440/44 30/441/44 29/442/44 48/443/44 

vt 2.55906 0.499874
vn 0.99886 0.047729 -1.94223e-16
vt 4.4685 0.499874
vt 4.4685 0.627747
vt 2.55906 0.627747
f 49/444/70 55/445/70 58/446/10 50/447/10 

vt -2.71654 0
vt -2.71654 0.748031
vt -4.4685 0.748031
vt -4.4685 -6.76094e-18
f 17/448/6 11/449/6 16/450/6 25/451/6 

