# FreeCAD v0.19 build19093 (Git) Arch module
# http://www.freecadweb.org
mtllib Eco-Disaster-Zone.mtl
o Body
usemtl color_cccccc
v 300.0 -310.0 105.0
v -300.0 -305.0 105.0
v -300.0 -310.0 105.0
v 300.0 -305.0 105.0
v 300.0 -305.0 -95.0
v -300.0 -305.0 -95.0
v 300.0 -305.0 -95.0
v 300.0 -310.0 -105.0
v 300.0 -5.0 -105.0
v 300.0 -5.0 -95.0
v 300.0 -310.0 -105.0
v 300.0 -310.0 105.0
v -300.0 -310.0 -105.0
v -300.0 -310.0 105.0
v -300.0 -305.0 -95.0
v -300.0 -310.0 -105.0
v -300.0 -5.0 -105.0
v -300.0 -5.0 -95.0
v -300.0 -5.0 -105.0
v 300.0 -5.0 -105.0
vn 0.0 0.0 1.0
vn 0.0 0.0 1.0
vn 0.0 1.0 0.0
vn 0.0 1.0 0.0
vn 1.0 0.0 -0.0
vn 1.0 0.0 0.0
vn 1.0 0.0 -0.0
vn 1.0 0.0 0.0
vn 0.0 -1.0 0.0
vn 0.0 -1.0 0.0
vn -1.0 0.0 0.0
vn -1.0 -0.0 -0.0
vn -1.0 0.0 0.0
vn -1.0 -0.0 -0.0
vn 0.0 0.0 1.0
vn 0.0 0.0 1.0
vn 0.0 1.0 0.0
vn 0.0 1.0 0.0
vn 0.0 0.0 -1.0
vn 0.0 0.0 -1.0
f 1//1 2//1 3//1 
f 4//2 2//2 1//2 
f 4//3 5//3 2//3 
f 2//4 5//4 6//4 
f 7//5 4//5 1//5 
f 8//6 7//6 1//6 
f 9//7 10//7 7//7 
f 9//8 7//8 8//8 
f 11//9 12//9 13//9 
f 13//10 12//10 14//10 
f 3//11 15//11 16//11 
f 2//12 15//12 3//12 
f 17//13 16//13 15//13 
f 18//14 17//14 15//14 
f 10//15 18//15 15//15 
f 10//16 15//16 7//16 
f 9//17 17//17 18//17 
f 10//18 9//18 18//18 
f 19//19 20//19 11//19 
f 19//20 11//20 13//20 
