# Blender v2.81 (sub 16) OBJ File: ''
# www.blender.org
mtllib eco-disaster-arena.mtl
o Body.006
v 1110.000000 -5.000181 1110.000000
v -1110.000000 -5.000181 1110.000000
v -1110.000000 -310.000183 1110.000000
v 1110.000000 -310.000183 1110.000000
v -1110.000000 -4.999819 -1110.000000
v -1110.000000 -309.999817 -1110.000000
v 1110.000000 -4.999819 -1110.000000
v 1110.000000 -309.999817 -1110.000000
v -700.000000 -4.999819 -1110.000000
v -1100.000000 -4.999821 -1100.000000
v -700.000000 -4.999821 -1100.000000
v -1100.000000 -5.000179 1100.000000
v 1100.000000 -4.999821 -1100.000000
v 700.000000 -4.999819 -1110.000000
v 700.000000 -4.999821 -1100.000000
v 1100.000000 -5.000179 1100.000000
v -700.000000 -309.999817 -1110.000000
v -700.000000 -309.999847 -900.000061
v 100.000000 -309.999817 -1110.000000
v -100.000000 -309.999847 -900.000061
v -100.000000 -309.999817 -1110.000000
v 100.000000 -309.999847 -900.000061
v 700.000000 -309.999817 -1110.000000
v 700.000000 -309.999847 -900.000061
v -700.000000 -304.999817 -1100.000000
v -700.000000 -304.999847 -900.000061
v -1100.000000 -304.999817 -1100.000000
v -1100.000000 -305.000183 1100.000000
v 1100.000000 -305.000183 1100.000000
v 1100.000000 -304.999817 -1100.000000
v 700.000000 -304.999817 -1100.000000
v 700.000000 -304.999847 -900.000061
v -100.000000 -304.999847 -900.000061
v -100.000000 -304.999817 -1100.000000
v -100.000000 -4.999821 -1100.000000
v -100.000000 -4.999819 -1110.000000
v 100.000000 -4.999819 -1110.000000
v 100.000000 -304.999817 -1100.000000
v 100.000000 -4.999821 -1100.000000
v 100.000000 -304.999847 -900.000061
vn 0.0000 0.0000 1.0000
vn -1.0000 0.0000 0.0000
vn 1.0000 0.0000 0.0000
vn 0.0000 1.0000 0.0000
vn 0.0000 -1.0000 0.0000
vn 0.0000 0.0000 -1.0000
usemtl color_cccccc.006
s off
f 1//1 2//1 3//1
f 1//1 3//1 4//1
f 3//2 5//2 6//2
f 2//2 5//2 3//2
f 7//3 1//3 4//3
f 7//3 4//3 8//3
f 9//4 5//4 10//4
f 11//4 9//4 10//4
f 2//4 10//4 5//4
f 12//4 10//4 2//4
f 13//4 14//4 15//4
f 13//4 7//4 14//4
f 1//4 16//4 12//4
f 1//4 12//4 2//4
f 1//4 7//4 13//4
f 1//4 13//4 16//4
f 17//5 18//5 6//5
f 19//5 20//5 21//5
f 19//5 22//5 20//5
f 20//5 3//5 18//5
f 18//5 3//5 6//5
f 23//5 8//5 24//5
f 24//5 4//5 22//5
f 20//5 4//5 3//5
f 22//5 4//5 20//5
f 8//5 4//5 24//5
f 5//6 17//6 6//6
f 5//6 9//6 17//6
f 14//6 8//6 23//6
f 14//6 7//6 8//6
f 25//3 9//3 11//3
f 25//3 17//3 9//3
f 18//3 25//3 26//3
f 18//3 17//3 25//3
f 25//1 10//1 27//1
f 11//1 10//1 25//1
f 10//3 12//3 28//3
f 10//3 28//3 27//3
f 12//6 16//6 29//6
f 12//6 29//6 28//6
f 16//2 13//2 30//2
f 16//2 30//2 29//2
f 13//1 31//1 30//1
f 13//1 15//1 31//1
f 31//2 15//2 14//2
f 31//2 24//2 32//2
f 23//2 31//2 14//2
f 23//2 24//2 31//2
f 20//6 26//6 33//6
f 20//6 18//6 26//6
f 34//2 35//2 36//2
f 34//2 20//2 33//2
f 21//2 34//2 36//2
f 21//2 20//2 34//2
f 37//6 19//6 21//6
f 36//6 37//6 21//6
f 38//3 37//3 39//3
f 38//3 19//3 37//3
f 22//3 38//3 40//3
f 22//3 19//3 38//3
f 24//6 40//6 32//6
f 24//6 22//6 40//6
f 28//4 26//4 27//4
f 26//4 25//4 27//4
f 28//4 33//4 26//4
f 29//4 40//4 28//4
f 28//4 40//4 33//4
f 33//4 38//4 34//4
f 40//4 38//4 33//4
f 29//4 32//4 40//4
f 32//4 30//4 31//4
f 29//4 30//4 32//4
f 39//4 37//4 36//4
f 39//4 36//4 35//4
f 39//1 34//1 38//1
f 39//1 35//1 34//1
