# Blender v2.81 (sub 16) OBJ File: ''
# www.blender.org
mtllib feed-the-fish-tower.mtl
o Body.010
v 100.000000 -0.000016 100.000000
v -100.000000 -0.000016 100.000000
v -100.000000 -400.000031 99.999931
v 100.000000 -400.000031 99.999931
v -100.000000 0.000016 -100.000000
v -100.000000 -399.999969 -100.000069
v 100.000000 -210.000015 94.999969
v 100.000000 -400.000031 94.999931
v 100.000000 -209.999985 -95.000031
v 100.000000 -399.999969 -95.000069
v 100.000000 -399.999969 -100.000069
v 100.000000 0.000016 -100.000000
v -95.000000 -0.000015 95.000000
v -95.000000 0.000015 -95.000000
v 95.000000 0.000015 -95.000000
v 95.000000 -0.000015 95.000000
v -95.000000 -399.999969 -95.000069
v -95.000000 -400.000031 94.999931
v -95.000000 -209.999985 -95.000031
v -95.000000 -210.000015 94.999969
v -95.000000 -195.000015 94.999969
v -95.000000 -194.999985 -95.000031
v 95.000000 -195.000015 94.999969
v 95.000000 -194.999985 -95.000031
v 95.000000 -194.999985 -95.000031
v -95.000000 -194.999985 -95.000031
vn 0.0000 -0.0000 1.0000
vn -1.0000 -0.0000 0.0000
vn 1.0000 0.0000 0.0000
vn -0.0000 1.0000 0.0000
vn 0.0000 -1.0000 0.0000
vn 0.0000 0.0000 -1.0000
usemtl color_cccccc.010
s off
f 1//1 2//1 3//1
f 1//1 3//1 4//1
f 2//2 5//2 6//2
f 2//2 6//2 3//2
f 7//3 4//3 8//3
f 9//3 10//3 11//3
f 1//3 7//3 9//3
f 12//3 1//3 9//3
f 11//3 12//3 9//3
f 1//3 4//3 7//3
f 13//4 5//4 2//4
f 13//4 14//4 5//4
f 15//4 12//4 5//4
f 15//4 5//4 14//4
f 1//4 16//4 13//4
f 1//4 13//4 2//4
f 1//4 12//4 15//4
f 1//4 15//4 16//4
f 6//5 11//5 17//5
f 18//5 3//5 17//5
f 17//5 3//5 6//5
f 11//5 10//5 17//5
f 8//5 4//5 18//5
f 18//5 4//5 3//5
f 5//6 12//6 11//6
f 5//6 11//6 6//6
f 10//1 9//1 19//1
f 10//1 19//1 17//1
f 7//5 20//5 19//5
f 9//5 7//5 19//5
f 8//6 18//6 20//6
f 7//6 8//6 20//6
f 14//3 13//3 21//3
f 14//3 21//3 22//3
f 16//6 23//6 21//6
f 13//6 16//6 21//6
f 15//2 24//2 23//2
f 16//2 15//2 23//2
f 14//1 22//1 24//1
f 15//1 14//1 24//1
f 18//3 19//3 20//3
f 18//3 17//3 19//3
f 23//4 25//4 21//4
f 21//4 25//4 26//4
