# Blender v2.80 (sub 75) OBJ File: ''
# www.blender.org
mtllib cBody.mtl
o SketchUp_ID3.002
v 144.000000 0.000000 182.500000
v 0.000000 0.000000 12.500001
v 0.000000 0.000000 182.500000
v 144.000000 0.000000 12.500001
v 144.000000 0.000000 12.500001
v 144.000000 -27.500002 0.000000
v 144.000000 -12.500001 0.000000
v 144.000000 -40.000000 12.500001
v 144.000000 0.000000 182.500000
v 144.000000 -40.000000 22.500002
v 144.000000 -42.000000 22.500002
v 144.000000 -40.000000 172.500000
v 144.000000 -40.000000 182.500000
v 144.000000 -12.500001 195.000000
v 144.000000 -27.500002 195.000000
v 144.000000 -42.000000 172.500000
v 144.000000 0.000000 12.500001
v 0.000000 -12.500001 0.000000
v 0.000000 0.000000 12.500001
v 144.000000 -12.500001 0.000000
v 0.000000 -42.000000 172.500000
v 0.000000 -40.000000 22.500002
v 0.000000 -42.000000 22.500002
v 0.000000 -40.000000 12.500001
v 0.000000 -12.500001 0.000000
v 0.000000 -27.500002 0.000000
v 0.000000 0.000000 12.500001
v 0.000000 0.000000 182.500000
v 0.000000 -40.000000 172.500000
v 0.000000 -40.000000 182.500000
v 0.000000 -27.500002 195.000000
v 0.000000 -12.500001 195.000000
v 0.000000 -12.500001 195.000000
v 144.000000 0.000000 182.500000
v 0.000000 0.000000 182.500000
v 144.000000 -12.500001 195.000000
v 144.000000 -27.500002 0.000000
v 0.000000 -12.500001 0.000000
v 144.000000 -12.500001 0.000000
v 0.000000 -27.500002 0.000000
v 0.000000 -27.500002 195.000000
v 144.000000 -12.500001 195.000000
v 0.000000 -12.500001 195.000000
v 144.000000 -27.500002 195.000000
v 0.000000 -40.000000 182.500000
v 144.000000 -27.500002 195.000000
v 0.000000 -27.500002 195.000000
v 144.000000 -40.000000 182.500000
v 144.000000 -40.000000 172.500000
v 0.000000 -40.000000 182.500000
v 0.000000 -40.000000 172.500000
v 144.000000 -40.000000 182.500000
v 0.000000 -42.000000 172.500000
v 144.000000 -40.000000 172.500000
v 0.000000 -40.000000 172.500000
v 144.000000 -42.000000 172.500000
v 144.000000 -42.000000 22.500002
v 0.000000 -42.000000 172.500000
v 0.000000 -42.000000 22.500002
v 144.000000 -42.000000 172.500000
v 144.000000 -42.000000 22.500002
v 0.000000 -40.000000 22.500002
v 144.000000 -40.000000 22.500002
v 0.000000 -42.000000 22.500002
v 144.000000 -40.000000 12.500001
v 0.000000 -40.000000 22.500002
v 0.000000 -40.000000 12.500001
v 144.000000 -40.000000 22.500002
v 144.000000 -40.000000 12.500001
v 0.000000 -27.500002 0.000000
v 144.000000 -27.500002 0.000000
v 0.000000 -40.000000 12.500001
vn 0.0000 1.0000 0.0000
vn 1.0000 0.0000 0.0000
vn 0.0000 0.7071 -0.7071
vn -1.0000 0.0000 0.0000
vn 0.0000 0.7071 0.7071
vn 0.0000 0.0000 -1.0000
vn 0.0000 0.0000 1.0000
vn 0.0000 -0.7071 0.7071
vn 0.0000 -1.0000 0.0000
vn 0.0000 -0.7071 -0.7071
usemtl material.002
s off
f 1//1 2//1 3//1
f 2//1 1//1 4//1
f 5//2 6//2 7//2
f 6//2 5//2 8//2
f 8//2 5//2 9//2
f 8//2 9//2 10//2
f 10//2 9//2 11//2
f 11//2 9//2 12//2
f 12//2 9//2 13//2
f 13//2 9//2 14//2
f 13//2 14//2 15//2
f 16//2 11//2 12//2
f 17//3 18//3 19//3
f 18//3 17//3 20//3
f 21//4 22//4 23//4
f 24//4 25//4 26//4
f 25//4 24//4 27//4
f 27//4 24//4 22//4
f 27//4 22//4 28//4
f 28//4 22//4 29//4
f 29//4 22//4 21//4
f 28//4 29//4 30//4
f 28//4 30//4 31//4
f 28//4 31//4 32//4
f 33//5 34//5 35//5
f 34//5 33//5 36//5
f 37//6 38//6 39//6
f 38//6 37//6 40//6
f 41//7 42//7 43//7
f 42//7 41//7 44//7
f 45//8 46//8 47//8
f 46//8 45//8 48//8
f 49//9 50//9 51//9
f 50//9 49//9 52//9
f 53//7 54//7 55//7
f 54//7 53//7 56//7
f 57//9 58//9 59//9
f 58//9 57//9 60//9
f 61//6 62//6 63//6
f 62//6 61//6 64//6
f 65//9 66//9 67//9
f 66//9 65//9 68//9
f 69//10 70//10 71//10
f 70//10 69//10 72//10
